<svg width="16" height="16" viewBox="2 0 16 16" xmlns="http://www.w3.org/2000/svg"><path d="M2.576 4.81H5.52v10.189H2.576V4.809zm1.397-1.275h-.021c-1.066 0-1.757-.779-1.757-1.765C2.195.764 2.906 0 3.993 0 5.08 0 5.748.762 5.77 1.767c0 .987-.69 1.768-1.796 1.768zM17.303 15h-3.34V9.726c0-1.38-.522-2.321-1.67-2.321-.879 0-1.367.635-1.595 1.248-.085.22-.072.526-.072.833V15H7.318s.043-9.341 0-10.19h3.308v1.599c.196-.7 1.253-1.697 2.94-1.697 2.092 0 3.737 1.466 3.737 4.621V15z" fill="#5D5D5D" fill-rule="evenodd"/></svg>